P2
3 2 255
85 85 170
170 170 0
