P2
50 50
255
217 125 48 47 116 32 112 246 61 23 180 20 22 203 2 214 126 4 166 109 136 93 43 178 139 135 65 176 244 35 177 104 128 198 229 14 57 4 93 44 121 114 75 234 0 66 12 40 238 254 61 113 33 235 15 64 95 180 98 61 125 30 154 140 117 20 8 24 47 194 239 182 88 78 208 46 231 177 2 169 236 220 66 239 116 191 169 71 128 179 101 163 15 13 114 244 188 52 70 132 230 207 230 188 191 114 56 168 190 37 234 141 68 66 136 111 21 187 153 156 92 219 227 186 246 232 106 107 194 31 55 12 75 76 107 63 153 208 231 144 143 6 33 91 178 13 157 40 228 51 2 194 85 28 195 30 184 74 175 3 28 109 133 87 205 239 182 29 219 36 128 23 68 212 198 11 46 172 26 24 240 51 109 10 93 200 184 79 237 118 255 218 189 51 193 250 243 235 34 180 196 113 226 44 203 116 99 121 143 171 100 4 217 168 11 25 217 217 107 195 175 137 218 125 84 217 145 206 38 114 53 121 99 102 167 88 32 245 86 44 253 220 244 118 221 230 16 111 100 145 87 166 22 104 4 102 249 150 77 12 9 90 168 157 245 54 251 242 68 127 149 162 99 124 253 226 33 11 153 11 179 236 201 66 222 156 230 95 137 255 234 3 249 90 56 160 146 174 245 238 185 137 205 128 95 38 68 128 0 235 66 219 247 163 20 138 68 37 160 168 236 63 24 175 3 18 182 41 15 108 168 157 23 203 16 18 79 225 162 241 246 150 117 164 1 121 186 241 240 113 201 6 219 191 0 222 127 99 245 149 159 88 235 162 218 237 178 240 83 3 11 205 151 70 82 147 139 231 90 173 177 26 95 99 162 46 200 146 123 137 174 164 32 102 229 32 160 15 80 117 188 19 171 207 178 138 173 139 170 109 21 210 100 214 3 241 11 149 61 160 66 159 215 98 64 126 7 210 160 149 16 246 167 180 199 166 73 15 197 231 42 68 233 52 43 94 31 50 28 81 34 70 140 169 193 17 11 80 239 54 94 150 204 25 45 13 148 96 129 47 170 4 252 124 249 9 242 105 45 24 241 226 69 158 34 136 217 174 214 106 40 86 80 107 57 18 89 112 221 167 7 99 168 81 92 90 169 98 153 191 73 216 201 59 126 174 89 38 245 5 253 43 51 87 161 1 129 208 114 224 188 66 104 162 39 72 134 79 252 126 195 12 64 30 57 67 97 177 244 93 93 178 113 150 44 89 236 101 2 161 74 44 200 239 156 1 162 224 119 29 8 10 163 157 45 188 216 130 254 106 20 237 176 205 252 91 179 247 248 106 51 72 163 226 71 140 137 173 108 45 100 151 104 108 200 73 40 192 151 139 138 145 191 184 140 206 226 202 111 147 176 190 145 253 98 68 77 187 239 79 161 105 35 70 176 32 209 147 60 95 240 19 1 64 230 255 194 198 95 136 158 148 151 230 62 87 150 90 251 221 189 28 70 238 223 126 214 143 36 240 192 219 11 175 20 61 112 141 210 109 182 78 10 174 12 22 57 192 22 169 106 189 216 184 41 193 98 11 253 60 104 83 102 26 29 215 178 96 16 181 13 231 112 175 201 136 61 56 88 129 83 162 30 127 111 183 146 211 216 2 190 99 85 197 238 81 140 209 49 76 186 2 65 229 18 156 152 25 176 184 162 99 99 54 177 13 139 65 198 2 188 249 98 245 232 28 199 231 146 95 222 216 75 144 94 23 8 17 219 90 198 137 190 81 27 231 240 244 205 66 55 243 222 202 64 173 127 253 90 243 51 126 134 123 82 211 204 146 249 237 54 126 110 21 192 161 143 32 82 21 116 83 205 114 68 236 121 23 98 220 15 75 139 145 57 154 24 92 35 84 179 123 191 141 122 43 42 172 212 85 117 54 227 157 155 192 52 206 57 242 150 236 164 202 143 4 3 200 56 106 36 202 38 4 12 29 108 72 89 23 180 94 81 238 41 84 146 126 185 84 104 249 166 43 188 14 141 89 245 254 222 236 173 140 121 146 77 14 132 36 8 113 162 92 174 188 214 148 64 227 220 34 193 139 234 144 213 89 74 95 177 180 145 26 248 29 238 146 249 247 75 26 155 36 8 188 34 176 73 92 242 194 185 67 67 214 235 137 67 158 144 27 235 221 252 44 227 25 229 172 166 214 6 6 136 21 173 84 20 109 140 182 114 179 167 196 250 56 169 152 160 18 136 245 138 101 177 107 101 210 26 91 83 228 121 74 204 180 193 228 135 37 4 70 211 20 28 88 105 131 164 236 183 21 165 213 180 59 82 105 148 252 135 110 208 148 239 53 208 95 108 165 246 220 64 103 226 94 85 69 95 225 243 161 19 208 144 102 151 60 254 225 126 242 70 157 94 232 216 144 106 252 44 5 134 151 131 100 221 192 35 231 167 89 69 140 82 96 251 92 75 181 158 77 96 21 18 135 78 123 188 25 243 198 107 203 195 96 181 148 243 142 166 104 128 180 90 208 153 108 201 98 172 63 89 215 6 232 18 110 139 84 38 112 119 28 125 60 56 111 194 173 28 126 172 80 241 64 140 18 232 2 241 82 187 103 219 36 250 119 125 14 76 146 57 228 105 14 147 118 176 189 219 217 106 30 199 225 102 196 60 51 22 30 126 99 162 210 104 165 50 166 166 167 132 190 0 204 252 190 130 153 88 174 204 167 87 149 91 57 205 60 189 240 80 246 248 1 117 102 190 132 247 95 251 133 75 122 112 109 36 73 152 93 56 21 55 131 92 222 160 67 67 135 165 147 61 57 116 180 179 111 133 192 149 246 57 8 87 205 43 142 28 3 172 178 87 250 159 250 73 248 172 88 86 142 60 135 12 11 46 147 155 82 148 244 33 228 79 80 28 11 117 107 23 135 212 108 181 236 202 240 50 254 251 42 75 235 228 84 228 18 163 246 195 64 226 100 201 141 146 118 6 178 19 54 36 248 184 173 79 19 145 189 233 133 46 24 141 42 232 68 32 161 48 205 128 55 13 150 28 178 142 244 99 75 158 205 92 116 0 206 238 254 116 165 167 160 53 174 105 178 117 159 149 149 2 13 91 98 143 74 178 230 214 161 178 188 184 95 162 11 202 27 78 234 11 52 237 71 73 133 109 245 223 42 78 243 15 43 208 14 199 83 232 227 101 97 255 100 203 235 165 116 151 93 84 27 155 2 193 158 116 209 237 85 7 116 2 71 121 36 112 43 91 181 40 48 163 218 151 165 89 240 180 118 135 142 101 99 185 74 117 90 59 157 185 58 177 124 106 149 27 130 20 68 219 106 230 19 100 147 63 92 40 240 113 249 227 18 140 66 191 78 120 252 154 151 7 116 245 185 186 178 190 219 69 8 144 156 61 137 200 148 158 71 160 51 61 79 244 215 68 105 211 222 84 208 204 233 79 154 219 138 74 175 239 122 93 69 156 67 161 41 140 107 24 34 45 134 50 233 34 222 129 19 252 204 145 210 133 177 198 240 81 22 38 243 114 219 168 106 255 192 200 185 196 18 199 148 46 199 8 157 152 39 79 235 193 249 17 107 9 0 47 21 55 75 199 238 29 227 108 224 241 92 182 221 250 220 52 141 108 115 147 11 4 148 50 42 118 252 191 6 247 3 72 105 32 231 95 96 117 241 16 199 64 108 128 207 145 136 249 122 223 32 190 252 238 180 59 252 176 184 129 38 10 247 113 96 84 243 24 152 25 93 228 191 62 16 130 97 216 244 154 100 85 79 76 248 58 27 68 212 26 27 149 215 176 82 175 145 204 181 156 214 160 79 66 16 97 70 252 119 104 40 109 9 98 156 49 106 254 33 68 34 128 1 254 69 148 1 128 3 239 159 110 14 54 187 74 19 5 114 94 221 219 49 20 177 208 71 26 208 196 234 202 136 94 127 237 255 132 38 250 191 101 151 35 255 2 59 197 233 180 197 48 142 22 92 204 149 228 91 220 196 52 14 227 185 164 42 220 241 201 18 208 193 201 125 130 217 82 208 186 96 144 52 82 63 84 188 183 61 77 220 86 115 200 217 125 52 109 151 16 33 0 136 94 64 50 176 60 244 172 210 84 70 204 66 46 155 3 223 12 53 189 85 136 58 192 17 211 224 112 147 244 171 231 177 202 193 31 167 61 158 33 104 1 12 91 141 176 91 94 184 199 68 71 28 18 29 38 230 173 5 153 56 236 171 249 192 135 127 161 226 50 133 181 241 232 121 117 168 182 197 2 195 212 212 122 111 41 133 49 125 202 78 11 145 40 218 192 167 254 208 53 196 73 141 235 32 205 247 132 161 153 143 221 235 161 22 221 94 108 224 250 146 180 202 56 167 74 103 144 89 7 151 111 210 78 34 254 74 228 122 46 77 94 7 150 59 168 107 206 172 80 193 228 4 224 200 84 155 204 158 141 47 173 163 65 146 62 180 74 104 23 206 178 209 132 54 102 232 52 231 165 61 233 34 191 254 4 158 251 50 185 3 225 154 255 250 37 27 192 89 49 165 171 155 97 216 4 151 81 31 251 162 29 27 106 100 78 101 8 142 90 91 254 111 178 233 75 23 190 241 118 231 225 39 245 185 51 69 39 89 248 112 37 140 165 208 148 131 224 221 110 115 215 123 157 200 78 165 20 233 251 211 131 101 29 18 71 76 246 18 65 159 105 204 10 134 50 222 195 220 80 168 152 178 132 200 19 243 28 147 229 203 131 155 166 37 137 192 151 117 183 216 52 237 144 77 147 215 73 85 251 125 16 203 215 196 251 77 28 66 83 215 244 16 215 235 137 117 68 144 189 11 33 106 227 250 5 31 237 158 52 56 28 126 193 21 240 88 204 16 41 84 125 152 137 53 234 142 38 162 42 240 99 148 239 46 122 61 202 175 112 87 114 199 107 19 110 24 138 137 248 66 254 32 150 94 202 117 182 156 199 32 79 59 179 149 94 24 227 38 202 23 122 102 117 45 138 35 143 87 154 178 7 94 16 164 131 227 24 46 103 177 143 46 131 235 77 178 183 166 125 88 24 161 98 105 194 236 147 229 95 71 211 223 194 140 85 121 154 130 230 131 92 16 229 170 159 194 29 249 177 39 29 44 60 112 24 154 121 218 57 49 50 44 78 57 146 93 118 10 20 223 96 210 4 84 63 43 209 85 87 88 91 178 81 71 169 146 253 88 60 143 80 45 21 90 36 8 148 53 181 22 69 155 120 140 0 254 225 30 132 250 207 136 232 152 245 117 11 66 34 91 89 73 210 52 45 108 235 228 33 202 64 93 176 167 245 32 77 244 223 128 217 102 129 84 44 183 189 176 154 63 83 82 72 92 16 10 25 91 160 23 248 40 166 204 46 88 44 123 120 20 190 160 213 168 18 176 238 40 238 20 55 244 251 130 93 217 162 223 106 176 47 40 62 75 190 235 47 208 149 96 60 206 162 15 80 17 170 0 25 116 225 70 35 251 72 222 0 53 99 206 7 232 162 21 112 242 141 191 98 55 231 152 252 196 60 47 179 86 123 252 206 234 151 53 46 1 94 137 126 66 215 94 55 0 142 236 213 178 9 124 13 34 114 60 217 241 69 158 27 112 140 194